<svg width="211" height="273" viewBox="0 0 211 273" fill="none" xmlns="http://www.w3.org/2000/svg">
<path d="M64.3475 5C64.3475 2.23857 66.5861 0 69.3475 0L69.8227 0C72.5841 0 74.8227 2.23858 74.8227 5V81.0078H64.3475V5Z" fill="#0B8FAC"/>
<path d="M206 68.0465C208.761 68.0465 211 70.285 211 73.0465V74.3875C211 77.149 208.761 79.3875 206 79.3875H146.652V68.0465H206Z" fill="#0B8FAC"/>
<path d="M206 127.992C208.761 127.992 211 130.231 211 132.992V134.333C211 137.095 208.761 139.333 206 139.333H146.652V127.992H206Z" fill="#0B8FAC"/>
<path d="M5 81.0078C2.23858 81.0078 0 78.7692 0 76.0078L0 74.6667C0 71.9053 2.23858 69.6667 5 69.6667H64.3475V81.0078H5Z" fill="#0B8FAC"/>
<path d="M5 139.333C2.23858 139.333 0 137.095 0 134.333L0 132.992C0 130.231 2.23858 127.992 5 127.992H64.3475V139.333H5Z" fill="#0B8FAC"/>
<path d="M74.8227 204C74.8227 206.761 72.5841 209 69.8227 209H69.3475C66.5861 209 64.3475 206.761 64.3475 204V127.992H74.8227V204Z" fill="#0B8FAC"/>
<path d="M146.652 204C146.652 206.761 144.414 209 141.652 209H141.177C138.416 209 136.177 206.761 136.177 204V127.992H146.652V204Z" fill="#0B8FAC"/>
<path d="M136.177 5C136.177 2.23857 138.416 0 141.177 0L141.652 0C144.414 0 146.652 2.23858 146.652 5V79.3876H136.177V5Z" fill="#0B8FAC"/>
<path d="M58.6055 262L57.1992 256.648H47.9219L46.4766 262H38L47.3164 233.328H57.6094L67.043 262H58.6055ZM55.5977 250.32L54.3672 245.633C54.237 245.125 54.0482 244.402 53.8008 243.465C53.5534 242.514 53.306 241.538 53.0586 240.535C52.8242 239.52 52.6419 238.686 52.5117 238.035C52.3945 238.686 52.2253 239.493 52.0039 240.457C51.7956 241.408 51.5742 242.352 51.3398 243.289C51.1185 244.227 50.9232 245.008 50.7539 245.633L49.5234 250.32H55.5977ZM94.4258 233.445V250.633C94.4258 253.029 93.9701 255.112 93.0586 256.883C92.1471 258.641 90.7799 260.001 88.957 260.965C87.1341 261.915 84.849 262.391 82.1016 262.391C78.1693 262.391 75.168 261.382 73.0977 259.363C71.0273 257.345 69.9922 254.493 69.9922 250.809V233.445H77.7461V250.203C77.7461 252.221 78.1237 253.686 78.8789 254.598C79.6341 255.509 80.7474 255.965 82.2188 255.965C83.2734 255.965 84.1328 255.77 84.7969 255.379C85.4609 254.975 85.9427 254.344 86.2422 253.484C86.5547 252.625 86.7109 251.518 86.7109 250.164V233.445H94.4258ZM109.777 233.445C112.368 233.445 114.523 233.764 116.242 234.402C117.961 235.027 119.25 235.965 120.109 237.215C120.982 238.465 121.418 240.021 121.418 241.883C121.418 243.042 121.223 244.096 120.832 245.047C120.441 245.997 119.882 246.85 119.152 247.605C118.436 248.348 117.577 248.999 116.574 249.559L124.895 262H116.145L110.09 251.609H108.137V262H100.422V233.445H109.777ZM109.66 239.285H108.137V245.809H109.582C110.767 245.809 111.737 245.548 112.492 245.027C113.247 244.507 113.625 243.576 113.625 242.234C113.625 241.31 113.312 240.587 112.688 240.066C112.062 239.546 111.053 239.285 109.66 239.285ZM145.012 262L143.605 256.648H134.328L132.883 262H124.406L133.723 233.328H144.016L153.449 262H145.012ZM142.004 250.32L140.773 245.633C140.643 245.125 140.454 244.402 140.207 243.465C139.96 242.514 139.712 241.538 139.465 240.535C139.23 239.52 139.048 238.686 138.918 238.035C138.801 238.686 138.632 239.493 138.41 240.457C138.202 241.408 137.98 242.352 137.746 243.289C137.525 244.227 137.329 245.008 137.16 245.633L135.93 250.32H142.004ZM175.227 253.328C175.227 254.878 174.836 256.349 174.055 257.742C173.273 259.122 172.056 260.242 170.402 261.102C168.762 261.961 166.639 262.391 164.035 262.391C162.733 262.391 161.587 262.332 160.598 262.215C159.621 262.098 158.71 261.909 157.863 261.648C157.017 261.375 156.138 261.023 155.227 260.594V253.719C156.776 254.5 158.339 255.099 159.914 255.516C161.49 255.919 162.915 256.121 164.191 256.121C164.96 256.121 165.585 256.03 166.066 255.848C166.561 255.665 166.926 255.418 167.16 255.105C167.395 254.78 167.512 254.409 167.512 253.992C167.512 253.497 167.336 253.081 166.984 252.742C166.646 252.391 166.099 252.026 165.344 251.648C164.589 251.271 163.592 250.802 162.355 250.242C161.301 249.747 160.344 249.24 159.484 248.719C158.638 248.198 157.909 247.605 157.297 246.941C156.698 246.264 156.236 245.477 155.91 244.578C155.585 243.68 155.422 242.618 155.422 241.395C155.422 239.559 155.871 238.022 156.77 236.785C157.681 235.535 158.944 234.598 160.559 233.973C162.186 233.348 164.061 233.035 166.184 233.035C168.046 233.035 169.719 233.243 171.203 233.66C172.701 234.077 174.042 234.552 175.227 235.086L172.863 241.043C171.639 240.483 170.435 240.04 169.25 239.715C168.065 239.376 166.965 239.207 165.949 239.207C165.285 239.207 164.738 239.292 164.309 239.461C163.892 239.617 163.579 239.832 163.371 240.105C163.176 240.379 163.078 240.691 163.078 241.043C163.078 241.486 163.247 241.883 163.586 242.234C163.938 242.586 164.517 242.97 165.324 243.387C166.145 243.79 167.258 244.318 168.664 244.969C170.057 245.594 171.242 246.271 172.219 247C173.195 247.716 173.938 248.582 174.445 249.598C174.966 250.6 175.227 251.844 175.227 253.328Z" fill="#0B8FAC"/>
<line x1="96.9881" y1="111" x2="111.988" y2="111" stroke="#0B8FAC"/>
<line x1="104.5" y1="103.486" x2="104.5" y2="118.486" stroke="#0B8FAC"/>
<path d="M128.442 91.4854C127.058 90.1015 125.416 89.0036 123.608 88.2546C121.801 87.5056 119.863 87.1201 117.906 87.1201C115.95 87.1201 114.012 87.5056 112.204 88.2546C110.397 89.0036 108.754 90.1015 107.371 91.4854L104.5 94.3563L101.629 91.4854C98.835 88.6913 95.0453 87.1215 91.0937 87.1215C87.1422 87.1215 83.3525 88.6913 80.5583 91.4854C77.7642 94.2796 76.1944 98.0693 76.1944 102.021C76.1944 105.972 77.7642 109.762 80.5583 112.556L104.5 136.498L128.442 112.556C129.826 111.173 130.923 109.531 131.672 107.723C132.421 105.915 132.807 103.978 132.807 102.021C132.807 100.064 132.421 98.1265 131.672 96.3188C130.923 94.5111 129.826 92.8687 128.442 91.4854Z" stroke="#0B8FAC" stroke-width="4" stroke-linecap="round" stroke-linejoin="round"/>
</svg>
